<svg width="29" height="29" viewBox="0 0 29 29" fill="none" xmlns="http://www.w3.org/2000/svg">
<path d="M9.72731 13.3789C9.10814 12.8285 8.16003 12.8843 7.60965 13.5035C7.05928 14.1226 7.11505 15.0707 7.73422 15.6211L9.72731 13.3789ZM13.0577 18.3462L12.0611 19.4673L13.1508 20.4358L14.15 19.3742L13.0577 18.3462ZM21.8423 11.2011C22.4101 10.5979 22.3813 9.64855 21.778 9.08078C21.1748 8.513 20.2255 8.54177 19.6577 9.14503L21.8423 11.2011ZM25.5 14.5C25.5 20.5751 20.5751 25.5 14.5 25.5V28.5C22.232 28.5 28.5 22.232 28.5 14.5H25.5ZM14.5 25.5C8.42487 25.5 3.5 20.5751 3.5 14.5H0.5C0.5 22.232 6.76801 28.5 14.5 28.5V25.5ZM3.5 14.5C3.5 8.42487 8.42487 3.5 14.5 3.5V0.5C6.76801 0.5 0.5 6.76801 0.5 14.5H3.5ZM14.5 3.5C20.5751 3.5 25.5 8.42487 25.5 14.5H28.5C28.5 6.76801 22.232 0.5 14.5 0.5V3.5ZM7.73422 15.6211L12.0611 19.4673L14.0542 17.225L9.72731 13.3789L7.73422 15.6211ZM14.15 19.3742L21.8423 11.2011L19.6577 9.14503L11.9654 17.3181L14.15 19.3742Z" fill="#E74B02"/>
</svg>
