<svg width="36" height="36" viewBox="0 0 36 36" fill="none" xmlns="http://www.w3.org/2000/svg">
<path d="M12.7378 16.1315C11.7059 15.2142 10.1257 15.3071 9.2084 16.3391C8.2911 17.371 8.38406 18.9512 9.41601 19.8685L12.7378 16.1315ZM16.2692 22.6154L14.6083 24.4839L16.4244 26.0982L18.0897 24.3288L16.2692 22.6154ZM27.3205 14.5211C28.2668 13.5157 28.2188 11.9335 27.2134 10.9872C26.208 10.0409 24.6258 10.0888 23.6795 11.0943L27.3205 14.5211ZM30.5 18C30.5 24.9036 24.9036 30.5 18 30.5V35.5C27.665 35.5 35.5 27.665 35.5 18H30.5ZM18 30.5C11.0964 30.5 5.5 24.9036 5.5 18H0.5C0.5 27.665 8.33502 35.5 18 35.5V30.5ZM5.5 18C5.5 11.0964 11.0964 5.5 18 5.5V0.5C8.33502 0.5 0.5 8.33502 0.5 18H5.5ZM18 5.5C24.9036 5.5 30.5 11.0964 30.5 18H35.5C35.5 8.33502 27.665 0.5 18 0.5V5.5ZM9.41601 19.8685L14.6083 24.4839L17.9301 20.7469L12.7378 16.1315L9.41601 19.8685ZM18.0897 24.3288L27.3205 14.5211L23.6795 11.0943L14.4487 20.902L18.0897 24.3288Z" fill="white"/>
</svg>
