<svg width="25" height="14" viewBox="0 0 25 14" fill="none" xmlns="http://www.w3.org/2000/svg">
<path fill-rule="evenodd" clip-rule="evenodd" d="M23.7959 0.981257C23.01 0.132531 21.685 0.0815662 20.8362 0.867423L11.0444 9.93391C10.1957 10.7198 10.1447 12.0449 10.9306 12.8936C11.7165 13.7423 13.0415 13.7933 13.8903 13.0074L23.6821 3.94093C24.5308 3.15507 24.5818 1.82998 23.7959 0.981257Z" fill="white"/>
<path fill-rule="evenodd" clip-rule="evenodd" d="M0.911124 0.981259C1.69698 0.132533 3.02207 0.0815679 3.8708 0.867425L13.6626 9.93391C14.5113 10.7198 14.5623 12.0449 13.7764 12.8936C12.9906 13.7423 11.6655 13.7933 10.8168 13.0074L1.02496 3.94093C0.176232 3.15508 0.125267 1.82998 0.911124 0.981259Z" fill="white"/>
</svg>
