<svg width="30" height="28" viewBox="0 0 30 28" fill="none" xmlns="http://www.w3.org/2000/svg">
<path d="M1.62214 27.5901C0.628112 27.7048 -0.182434 26.8085 0.0358019 25.8359L0.871611 22.1113C1.12917 20.9635 2.58068 20.5841 3.37102 21.4581L6.34217 24.7435C7.13251 25.6174 6.60225 27.0154 5.4291 27.1508L1.62214 27.5901Z" fill="white"/>
<path d="M19.3592 4.24799C19.9559 3.71283 20.8753 3.76071 21.4127 4.35494L25.3047 8.6587C25.8421 9.25293 25.7941 10.1685 25.1974 10.7036L10.0715 24.2695C9.4748 24.8047 8.55544 24.7568 8.01805 24.1626L4.12596 19.8588C3.58857 19.2646 3.63665 18.349 4.23335 17.8139L19.3592 4.24799Z" fill="white"/>
<path d="M23.6809 0.372033C24.2776 -0.163126 25.1969 -0.115243 25.7343 0.478983L29.6264 4.78275C30.1638 5.37698 30.1157 6.29253 29.519 6.82769L28.4386 7.79668C27.8419 8.33184 26.9226 8.28395 26.3852 7.68973L22.4931 3.38596C21.9557 2.79173 22.0038 1.87619 22.6005 1.34103L23.6809 0.372033Z" fill="white"/>
</svg>
