<svg width="14" height="25" viewBox="0 0 14 25" fill="none" xmlns="http://www.w3.org/2000/svg">
<path fill-rule="evenodd" clip-rule="evenodd" d="M13.0298 1.00365C13.8785 1.78951 13.9295 3.1146 13.1436 3.96333L4.07716 13.7551C3.2913 14.6039 1.96621 14.6548 1.11749 13.869C0.268762 13.0831 0.217797 11.758 1.00365 10.9093L10.0701 1.11749C10.856 0.268762 12.1811 0.217797 13.0298 1.00365Z" fill="white"/>
<path fill-rule="evenodd" clip-rule="evenodd" d="M13.0298 23.8884C13.8785 23.1026 13.9295 21.7775 13.1436 20.9288L4.07716 11.137C3.2913 10.2882 1.96621 10.2373 1.11749 11.0231C0.268762 11.809 0.217797 13.1341 1.00365 13.9828L10.0701 23.7746C10.856 24.6233 12.1811 24.6743 13.0298 23.8884Z" fill="white"/>
</svg>
