<svg width="14" height="25" viewBox="0 0 14 25" fill="none" xmlns="http://www.w3.org/2000/svg">
<path fill-rule="evenodd" clip-rule="evenodd" d="M0.888483 1.00365C0.0397577 1.78951 -0.0112073 3.1146 0.77465 3.96333L9.84113 13.7551C10.627 14.6039 11.9521 14.6548 12.8008 13.869C13.6495 13.0831 13.7005 11.758 12.9146 10.9093L3.84816 1.11749C3.0623 0.268762 1.73721 0.217797 0.888483 1.00365Z" fill="white"/>
<path fill-rule="evenodd" clip-rule="evenodd" d="M0.888484 23.8884C0.0397586 23.1026 -0.0112065 21.7775 0.774651 20.9288L9.84113 11.137C10.627 10.2882 11.9521 10.2373 12.8008 11.0231C13.6495 11.809 13.7005 13.1341 12.9146 13.9828L3.84816 23.7746C3.0623 24.6233 1.73721 24.6743 0.888484 23.8884Z" fill="white"/>
</svg>
