<svg width="24" height="27" viewBox="0 0 24 27" fill="none" xmlns="http://www.w3.org/2000/svg">
<path d="M24 5.17573C24 7.51752 22.1016 9.41592 19.7598 9.41592C17.418 9.41592 15.5196 7.51752 15.5196 5.17573C15.5196 2.83394 17.418 0.935547 19.7598 0.935547C22.1016 0.935547 24 2.83394 24 5.17573Z" fill="white"/>
<path d="M8.48037 13.656C8.48037 15.9978 6.58197 17.8962 4.24019 17.8962C1.8984 17.8962 0 15.9978 0 13.656C0 11.3142 1.8984 9.41583 4.24019 9.41583C6.58197 9.41583 8.48037 11.3142 8.48037 13.656Z" fill="white"/>
<path d="M24 22.2474C24 24.5892 22.1016 26.4876 19.7598 26.4876C17.418 26.4876 15.5196 24.5892 15.5196 22.2474C15.5196 19.9056 17.418 18.0072 19.7598 18.0072C22.1016 18.0072 24 19.9056 24 22.2474Z" fill="white"/>
<path fill-rule="evenodd" clip-rule="evenodd" d="M21.5422 4.45735C22.0257 5.35502 21.69 6.47469 20.7923 6.95819L8.10087 13.794L20.807 20.787C21.7003 21.2786 22.0259 22.4013 21.5342 23.2946C21.0426 24.1878 19.92 24.5134 19.0267 24.0218L0.37952 13.759L19.0414 3.70742C19.9391 3.22392 21.0587 3.55968 21.5422 4.45735Z" fill="white"/>
</svg>
