<svg width="25" height="14" viewBox="0 0 25 14" fill="none" xmlns="http://www.w3.org/2000/svg">
<path fill-rule="evenodd" clip-rule="evenodd" d="M23.7959 13.1223C23.01 13.9711 21.685 14.022 20.8362 13.2362L11.0444 4.16969C10.1957 3.38383 10.1447 2.05874 10.9306 1.21002C11.7165 0.361291 13.0415 0.310326 13.8903 1.09618L23.6821 10.1627C24.5308 10.9485 24.5818 12.2736 23.7959 13.1223Z" fill="white"/>
<path fill-rule="evenodd" clip-rule="evenodd" d="M0.911125 13.1223C1.69698 13.9711 3.02207 14.022 3.8708 13.2362L13.6626 4.16969C14.5113 3.38383 14.5623 2.05874 13.7764 1.21002C12.9906 0.361291 11.6655 0.310326 10.8168 1.09618L1.02496 10.1627C0.176232 10.9485 0.125267 12.2736 0.911125 13.1223Z" fill="white"/>
</svg>
